STARTFONT 2.1
FONT -Monotype-Book Antiqua-Regular-R-Normal--17-120-100-100-P-78-iso8859-2
SIZE 12 100 100
FONTBOUNDINGBOX 21 21 -2 -5

STARTPROPERTIES 24
FOUNDRY "Monotype"
FAMILY_NAME "Book Antiqua"
WEIGHT_NAME "Regular"
SLANT "R"
SETWIDTH_NAME "Normal"
ADD_STYLE_NAME ""
PIXEL_SIZE 17
POINT_SIZE 120
RESOLUTION_X 100
RESOLUTION_Y 100
SPACING "P"
AVERAGE_WIDTH 78
CHARSET_REGISTRY "iso8859"
CHARSET_ENCODING "2"
FACE_NAME "Book Antiqua ISO Latin2"
_DEC_DEVICE_FONTNAMES "PS=bookantiqua-lat2"
COPYRIGHT "Copyright (c) 1994 Monotype Typography Ltd."
CAP_HEIGHT 15
X_HEIGHT 10
WEIGHT 10
QUAD_WIDTH 11
DEFAULT_CHAR 160
FONT_DESCENT 5
FONT_ASCENT 17
ENDPROPERTIES

CHARS 191

STARTCHAR space
ENCODING 32
SWIDTH 250 0
DWIDTH 4 0
BBX 0 0 0 0
BITMAP
ENDCHAR

STARTCHAR exclam
ENCODING 33
SWIDTH 278 0
DWIDTH 5 0
BBX 1 13 2 0
BITMAP
80
80
80
80
80
80
80
80
80
80
00
80
80
ENDCHAR

STARTCHAR quotedbl
ENCODING 34
SWIDTH 371 0
DWIDTH 6 0
BBX 4 5 1 7
BITMAP
90
90
90
90
90
ENDCHAR

STARTCHAR numbersign
ENCODING 35
SWIDTH 606 0
DWIDTH 10 0
BBX 11 12 0 0
BITMAP
0880
0880
0880
0880
7FE0
1100
1100
FFC0
2200
2200
2200
2200
ENDCHAR

STARTCHAR dollar
ENCODING 36
SWIDTH 500 0
DWIDTH 9 0
BBX 7 15 1 -2
BITMAP
10
3E
52
92
90
90
7C
16
12
12
92
94
F8
10
10
ENDCHAR

STARTCHAR percent
ENCODING 37
SWIDTH 840 0
DWIDTH 14 0
BBX 11 12 2 0
BITMAP
7080
8900
8900
8A00
8A00
7400
05C0
0A20
0A20
1220
1220
21C0
ENDCHAR

STARTCHAR ampersand
ENCODING 38
SWIDTH 778 0
DWIDTH 13 0
BBX 12 12 1 0
BITMAP
1800
2400
4400
4400
2800
31E0
4880
8480
8280
8100
4310
3CE0
ENDCHAR

STARTCHAR quoteright
ENCODING 39
SWIDTH 278 0
DWIDTH 5 0
BBX 3 4 1 9
BITMAP
60
60
40
80
ENDCHAR

STARTCHAR parenleft
ENCODING 40
SWIDTH 333 0
DWIDTH 6 0
BBX 4 18 1 -5
BITMAP
10
20
40
40
80
80
80
80
80
80
80
80
80
80
40
40
20
10
ENDCHAR

STARTCHAR parenright
ENCODING 41
SWIDTH 333 0
DWIDTH 6 0
BBX 4 18 1 -5
BITMAP
80
40
20
20
10
10
10
10
10
10
10
10
10
10
20
20
40
80
ENDCHAR

STARTCHAR asterisk
ENCODING 42
SWIDTH 389 0
DWIDTH 7 0
BBX 5 6 1 7
BITMAP
20
20
F8
20
50
50
ENDCHAR

STARTCHAR plus
ENCODING 43
SWIDTH 606 0
DWIDTH 10 0
BBX 9 9 1 1
BITMAP
0800
0800
0800
0800
FF80
0800
0800
0800
0800
ENDCHAR

STARTCHAR comma
ENCODING 44
SWIDTH 250 0
DWIDTH 4 0
BBX 3 4 0 -2
BITMAP
60
60
40
80
ENDCHAR

STARTCHAR minus
ENCODING 45
SWIDTH 606 0
DWIDTH 10 0
BBX 8 1 1 5
BITMAP
FF
ENDCHAR

STARTCHAR period
ENCODING 46
SWIDTH 250 0
DWIDTH 4 0
BBX 2 2 1 0
BITMAP
C0
C0
ENDCHAR

STARTCHAR slash
ENCODING 47
SWIDTH 606 0
DWIDTH 10 0
BBX 9 18 1 -5
BITMAP
0080
0080
0100
0100
0200
0200
0400
0400
0800
0800
1000
1000
2000
2000
4000
4000
8000
8000
ENDCHAR

STARTCHAR zero
ENCODING 48
SWIDTH 500 0
DWIDTH 9 0
BBX 7 12 1 0
BITMAP
38
44
82
82
82
82
82
82
82
82
44
38
ENDCHAR

STARTCHAR one
ENCODING 49
SWIDTH 500 0
DWIDTH 9 0
BBX 5 12 2 0
BITMAP
20
E0
20
20
20
20
20
20
20
20
20
F8
ENDCHAR

STARTCHAR two
ENCODING 50
SWIDTH 500 0
DWIDTH 9 0
BBX 7 12 1 0
BITMAP
78
84
82
02
02
04
04
08
10
20
40
FE
ENDCHAR

STARTCHAR three
ENCODING 51
SWIDTH 500 0
DWIDTH 9 0
BBX 7 12 1 0
BITMAP
78
84
84
04
08
1C
22
02
02
02
84
78
ENDCHAR

STARTCHAR four
ENCODING 52
SWIDTH 500 0
DWIDTH 9 0
BBX 8 12 1 0
BITMAP
04
0C
14
14
24
44
44
84
FF
04
04
1F
ENDCHAR

STARTCHAR five
ENCODING 53
SWIDTH 500 0
DWIDTH 9 0
BBX 7 12 1 0
BITMAP
7E
40
40
40
78
44
02
02
02
82
84
78
ENDCHAR

STARTCHAR six
ENCODING 54
SWIDTH 500 0
DWIDTH 9 0
BBX 7 12 1 0
BITMAP
0C
10
20
40
40
B8
C4
82
82
82
44
38
ENDCHAR

STARTCHAR seven
ENCODING 55
SWIDTH 500 0
DWIDTH 9 0
BBX 7 12 1 0
BITMAP
FE
82
84
04
08
08
10
10
20
20
40
40
ENDCHAR

STARTCHAR eight
ENCODING 56
SWIDTH 500 0
DWIDTH 9 0
BBX 7 12 1 0
BITMAP
38
44
82
82
64
38
4C
82
82
82
44
38
ENDCHAR

STARTCHAR nine
ENCODING 57
SWIDTH 500 0
DWIDTH 9 0
BBX 7 12 1 0
BITMAP
38
44
82
82
82
46
3A
04
04
08
10
60
ENDCHAR

STARTCHAR colon
ENCODING 58
SWIDTH 250 0
DWIDTH 4 0
BBX 2 8 1 0
BITMAP
C0
C0
00
00
00
00
C0
C0
ENDCHAR

STARTCHAR semicolon
ENCODING 59
SWIDTH 250 0
DWIDTH 4 0
BBX 3 10 0 -2
BITMAP
60
60
00
00
00
00
60
60
40
80
ENDCHAR

STARTCHAR less
ENCODING 60
SWIDTH 606 0
DWIDTH 10 0
BBX 8 7 1 2
BITMAP
03
0C
30
C0
30
0C
03
ENDCHAR

STARTCHAR equal
ENCODING 61
SWIDTH 606 0
DWIDTH 10 0
BBX 8 3 1 4
BITMAP
FF
00
FF
ENDCHAR

STARTCHAR greater
ENCODING 62
SWIDTH 606 0
DWIDTH 10 0
BBX 8 7 1 2
BITMAP
C0
30
0C
03
0C
30
C0
ENDCHAR

STARTCHAR question
ENCODING 63
SWIDTH 444 0
DWIDTH 8 0
BBX 6 13 1 0
BITMAP
78
8C
84
04
04
08
10
20
40
40
00
40
40
ENDCHAR

STARTCHAR at
ENCODING 64
SWIDTH 747 0
DWIDTH 13 0
BBX 12 14 1 -2
BITMAP
0780
1860
2020
4390
4490
8890
9090
9110
9360
8D80
4010
4010
3060
0F80
ENDCHAR

STARTCHAR A
ENCODING 65
SWIDTH 778 0
DWIDTH 12 0
BBX 13 12 0 0
BITMAP
0200
0200
0200
0500
0500
0880
0880
1FC0
1040
2020
2020
F8F8
ENDCHAR

STARTCHAR B
ENCODING 66
SWIDTH 611 0
DWIDTH 10 0
BBX 9 12 1 0
BITMAP
FE00
2100
2100
2100
2200
3E00
2100
2080
2080
2080
2100
FE00
ENDCHAR

STARTCHAR C
ENCODING 67
SWIDTH 709 0
DWIDTH 12 0
BBX 10 12 1 0
BITMAP
0FC0
3040
4040
4000
8000
8000
8000
8000
4000
4000
3040
0F80
ENDCHAR

STARTCHAR D
ENCODING 68
SWIDTH 774 0
DWIDTH 13 0
BBX 12 12 1 0
BITMAP
FF00
20C0
2020
2020
2010
2010
2010
2010
2020
2020
20C0
FF00
ENDCHAR

STARTCHAR E
ENCODING 69
SWIDTH 611 0
DWIDTH 10 0
BBX 9 12 1 0
BITMAP
FF80
2080
2080
2000
2100
3F00
2100
2000
2000
2080
2080
FF80
ENDCHAR

STARTCHAR F
ENCODING 70
SWIDTH 556 0
DWIDTH 9 0
BBX 8 12 1 0
BITMAP
FF
21
21
20
22
3E
22
20
20
20
20
F8
ENDCHAR

STARTCHAR G
ENCODING 71
SWIDTH 763 0
DWIDTH 13 0
BBX 11 12 1 0
BITMAP
0FE0
3020
4020
4000
8000
8000
8000
81E0
4040
4040
3040
0F80
ENDCHAR

STARTCHAR H
ENCODING 72
SWIDTH 832 0
DWIDTH 14 0
BBX 13 12 1 0
BITMAP
F8F8
2020
2020
2020
2020
3FE0
2020
2020
2020
2020
2020
F8F8
ENDCHAR

STARTCHAR I
ENCODING 73
SWIDTH 337 0
DWIDTH 6 0
BBX 5 12 1 0
BITMAP
F8
20
20
20
20
20
20
20
20
20
20
F8
ENDCHAR

STARTCHAR J
ENCODING 74
SWIDTH 333 0
DWIDTH 6 0
BBX 5 15 1 -3
BITMAP
F8
20
20
20
20
20
20
20
20
20
20
20
20
20
C0
ENDCHAR

STARTCHAR K
ENCODING 75
SWIDTH 726 0
DWIDTH 12 0
BBX 12 12 1 0
BITMAP
F8E0
2100
2200
2400
2800
3800
2400
2200
2100
2080
2040
F870
ENDCHAR

STARTCHAR L
ENCODING 76
SWIDTH 611 0
DWIDTH 10 0
BBX 9 12 1 0
BITMAP
F800
2000
2000
2000
2000
2000
2000
2000
2000
2080
2080
FF80
ENDCHAR

STARTCHAR M
ENCODING 77
SWIDTH 946 0
DWIDTH 16 0
BBX 15 12 1 0
BITMAP
E00E
3008
3018
2818
2828
2428
2448
2248
2288
2188
2108
F93E
ENDCHAR

STARTCHAR N
ENCODING 78
SWIDTH 831 0
DWIDTH 14 0
BBX 13 12 1 0
BITMAP
E0F8
3020
2820
2820
2420
2220
2220
2120
20A0
20A0
2060
F820
ENDCHAR

STARTCHAR O
ENCODING 79
SWIDTH 786 0
DWIDTH 13 0
BBX 12 12 1 0
BITMAP
0F00
30C0
4020
4020
8010
8010
8010
8010
4020
4020
30C0
0F00
ENDCHAR

STARTCHAR P
ENCODING 80
SWIDTH 604 0
DWIDTH 10 0
BBX 9 12 1 0
BITMAP
FE00
2100
2080
2080
2080
2100
2E00
2000
2000
2000
2000
F800
ENDCHAR

STARTCHAR Q
ENCODING 81
SWIDTH 786 0
DWIDTH 13 0
BBX 12 15 1 -3
BITMAP
0F00
30C0
4020
4020
8010
8010
8010
8010
4020
4020
30C0
0F00
0E00
1390
00E0
ENDCHAR

STARTCHAR R
ENCODING 82
SWIDTH 668 0
DWIDTH 11 0
BBX 11 12 1 0
BITMAP
FE00
2100
2080
2080
2100
3E00
2800
2400
2200
2100
2080
F8E0
ENDCHAR

STARTCHAR S
ENCODING 83
SWIDTH 525 0
DWIDTH 9 0
BBX 7 12 1 0
BITMAP
3E
42
82
80
80
7C
06
02
02
82
84
F8
ENDCHAR

STARTCHAR T
ENCODING 84
SWIDTH 613 0
DWIDTH 10 0
BBX 9 12 1 0
BITMAP
FF80
8880
8880
0800
0800
0800
0800
0800
0800
0800
0800
3E00
ENDCHAR

STARTCHAR U
ENCODING 85
SWIDTH 778 0
DWIDTH 13 0
BBX 13 12 1 0
BITMAP
F8F8
2020
2020
2020
2020
2020
2020
2020
2020
2020
1040
0F80
ENDCHAR

STARTCHAR V
ENCODING 86
SWIDTH 722 0
DWIDTH 12 0
BBX 12 12 0 0
BITMAP
F9F0
2040
2040
1080
1080
1080
0900
0900
0900
0600
0600
0600
ENDCHAR

STARTCHAR W
ENCODING 87
SWIDTH 1000 0
DWIDTH 18 0
BBX 19 12 0 0
BITMAP
F843E0
204080
206080
10E100
10A100
109100
091200
091200
0D0A00
060C00
060C00
060C00
ENDCHAR

STARTCHAR X
ENCODING 88
SWIDTH 667 0
DWIDTH 11 0
BBX 11 12 0 0
BITMAP
E060
3080
1100
0900
0E00
0400
0600
0A00
1100
1100
2080
C0E0
ENDCHAR

STARTCHAR Y
ENCODING 89
SWIDTH 667 0
DWIDTH 11 0
BBX 10 12 1 0
BITMAP
C0C0
2100
1200
1200
1400
0C00
0800
0800
0800
0800
0800
3E00
ENDCHAR

STARTCHAR Z
ENCODING 90
SWIDTH 667 0
DWIDTH 11 0
BBX 10 12 1 0
BITMAP
FFC0
8080
8100
0200
0200
0400
0800
1000
1000
2040
4040
FFC0
ENDCHAR

STARTCHAR bracketleft
ENCODING 91
SWIDTH 333 0
DWIDTH 6 0
BBX 3 18 2 -5
BITMAP
E0
80
80
80
80
80
80
80
80
80
80
80
80
80
80
80
80
E0
ENDCHAR

STARTCHAR backslash
ENCODING 92
SWIDTH 606 0
DWIDTH 10 0
BBX 9 18 1 -5
BITMAP
8000
8000
4000
4000
2000
2000
1000
1000
0800
0800
0400
0400
0200
0200
0100
0100
0080
0080
ENDCHAR

STARTCHAR bracketright
ENCODING 93
SWIDTH 333 0
DWIDTH 6 0
BBX 3 18 1 -5
BITMAP
E0
20
20
20
20
20
20
20
20
20
20
20
20
20
20
20
20
E0
ENDCHAR

STARTCHAR asciicircum
ENCODING 94
SWIDTH 606 0
DWIDTH 10 0
BBX 7 6 2 6
BITMAP
10
10
28
44
44
82
ENDCHAR

STARTCHAR underscore
ENCODING 95
SWIDTH 500 0
DWIDTH 9 0
BBX 9 1 0 -2
BITMAP
FF80
ENDCHAR

STARTCHAR quoteleft
ENCODING 96
SWIDTH 278 0
DWIDTH 5 0
BBX 3 4 1 9
BITMAP
20
40
C0
C0
ENDCHAR

STARTCHAR a
ENCODING 97
SWIDTH 500 0
DWIDTH 9 0
BBX 7 8 1 0
BITMAP
78
84
0C
74
84
84
8C
76
ENDCHAR

STARTCHAR b
ENCODING 98
SWIDTH 553 0
DWIDTH 9 0
BBX 8 13 1 0
BITMAP
40
C0
40
40
40
5C
62
41
41
41
41
62
DC
ENDCHAR

STARTCHAR c
ENCODING 99
SWIDTH 444 0
DWIDTH 8 0
BBX 7 8 1 0
BITMAP
3E
42
82
80
80
80
42
3C
ENDCHAR

STARTCHAR d
ENCODING 100
SWIDTH 611 0
DWIDTH 10 0
BBX 8 13 1 0
BITMAP
02
06
02
02
02
3A
46
82
82
82
82
46
3B
ENDCHAR

STARTCHAR e
ENCODING 101
SWIDTH 479 0
DWIDTH 9 0
BBX 7 8 1 0
BITMAP
38
44
82
FE
80
80
42
3C
ENDCHAR

STARTCHAR f
ENCODING 102
SWIDTH 333 0
DWIDTH 6 0
BBX 5 13 1 0
BITMAP
18
28
40
40
40
F0
40
40
40
40
40
40
E0
ENDCHAR

STARTCHAR g
ENCODING 103
SWIDTH 556 0
DWIDTH 9 0
BBX 9 13 1 -5
BITMAP
1D80
2200
4200
4200
4400
3800
4000
3C00
4200
8100
8100
4200
3C00
ENDCHAR

STARTCHAR h
ENCODING 104
SWIDTH 582 0
DWIDTH 10 0
BBX 8 13 1 0
BITMAP
40
C0
40
40
40
5C
62
42
42
42
42
42
E3
ENDCHAR

STARTCHAR i
ENCODING 105
SWIDTH 291 0
DWIDTH 5 0
BBX 3 12 1 0
BITMAP
40
40
00
00
40
C0
40
40
40
40
40
E0
ENDCHAR

STARTCHAR j
ENCODING 106
SWIDTH 234 0
DWIDTH 4 0
BBX 3 17 0 -5
BITMAP
20
20
00
00
20
60
20
20
20
20
20
20
20
20
20
40
80
ENDCHAR

STARTCHAR k
ENCODING 107
SWIDTH 556 0
DWIDTH 9 0
BBX 8 13 1 0
BITMAP
40
C0
40
40
40
43
44
48
70
50
48
44
E3
ENDCHAR

STARTCHAR l
ENCODING 108
SWIDTH 291 0
DWIDTH 5 0
BBX 3 13 1 0
BITMAP
40
C0
40
40
40
40
40
40
40
40
40
40
E0
ENDCHAR

STARTCHAR m
ENCODING 109
SWIDTH 883 0
DWIDTH 15 0
BBX 13 8 1 0
BITMAP
5CE0
E310
4210
4210
4210
4210
4210
E718
ENDCHAR

STARTCHAR n
ENCODING 110
SWIDTH 582 0
DWIDTH 10 0
BBX 8 8 1 0
BITMAP
5C
E2
42
42
42
42
42
E3
ENDCHAR

STARTCHAR o
ENCODING 111
SWIDTH 546 0
DWIDTH 9 0
BBX 7 8 1 0
BITMAP
38
44
82
82
82
82
44
38
ENDCHAR

STARTCHAR p
ENCODING 112
SWIDTH 601 0
DWIDTH 10 0
BBX 8 13 1 -5
BITMAP
5C
E2
41
41
41
41
62
5C
40
40
40
40
E0
ENDCHAR

STARTCHAR q
ENCODING 113
SWIDTH 560 0
DWIDTH 10 0
BBX 8 13 1 -5
BITMAP
3A
46
82
82
82
82
46
3A
02
02
02
02
07
ENDCHAR

STARTCHAR r
ENCODING 114
SWIDTH 395 0
DWIDTH 7 0
BBX 5 8 1 0
BITMAP
58
E8
40
40
40
40
40
E0
ENDCHAR

STARTCHAR s
ENCODING 115
SWIDTH 424 0
DWIDTH 7 0
BBX 6 8 1 0
BITMAP
7C
84
80
60
18
04
84
F8
ENDCHAR

STARTCHAR t
ENCODING 116
SWIDTH 326 0
DWIDTH 6 0
BBX 5 11 1 0
BITMAP
40
40
40
F0
40
40
40
40
40
48
30
ENDCHAR

STARTCHAR u
ENCODING 117
SWIDTH 603 0
DWIDTH 10 0
BBX 8 8 1 0
BITMAP
C6
42
42
42
42
42
46
3B
ENDCHAR

STARTCHAR v
ENCODING 118
SWIDTH 565 0
DWIDTH 10 0
BBX 8 8 1 0
BITMAP
E7
42
42
24
24
24
18
18
ENDCHAR

STARTCHAR w
ENCODING 119
SWIDTH 834 0
DWIDTH 14 0
BBX 13 8 1 0
BITMAP
E238
4210
4510
2520
28A0
28A0
1040
1040
ENDCHAR

STARTCHAR x
ENCODING 120
SWIDTH 516 0
DWIDTH 9 0
BBX 9 8 0 0
BITMAP
C180
2200
1400
0800
0800
1400
2200
C180
ENDCHAR

STARTCHAR y
ENCODING 121
SWIDTH 556 0
DWIDTH 9 0
BBX 8 13 1 -5
BITMAP
E7
42
42
24
24
28
18
10
10
10
20
A0
C0
ENDCHAR

STARTCHAR z
ENCODING 122
SWIDTH 500 0
DWIDTH 9 0
BBX 7 8 1 0
BITMAP
FE
84
08
10
20
40
82
FE
ENDCHAR

STARTCHAR braceleft
ENCODING 123
SWIDTH 333 0
DWIDTH 6 0
BBX 5 18 1 -5
BITMAP
18
20
20
20
20
20
20
20
C0
C0
20
20
20
20
20
20
20
18
ENDCHAR

STARTCHAR bar
ENCODING 124
SWIDTH 606 0
DWIDTH 10 0
BBX 1 18 5 -5
BITMAP
80
80
80
80
80
80
80
80
80
80
80
80
80
80
80
80
80
80
ENDCHAR

STARTCHAR braceright
ENCODING 125
SWIDTH 333 0
DWIDTH 6 0
BBX 5 18 1 -5
BITMAP
C0
20
20
20
20
20
20
20
18
18
20
20
20
20
20
20
20
C0
ENDCHAR

STARTCHAR asciitilde
ENCODING 126
SWIDTH 606 0
DWIDTH 10 0
BBX 9 2 1 4
BITMAP
7880
8F00
ENDCHAR

STARTCHAR space
ENCODING 160
SWIDTH 250 0
DWIDTH 6 0
BBX 0 0 0 0
BITMAP
ENDCHAR

STARTCHAR Aogonek
ENCODING 161
SWIDTH 778 0
DWIDTH 12 0
BBX 14 14 0 -2
BITMAP
0200
0200
0200
0500
0500
0880
0880
1FC0
1040
2020
2020
F8F8
0020
001C
ENDCHAR

STARTCHAR breve
ENCODING 162
SWIDTH 333 0
DWIDTH 6 0
BBX 5 2 1 9
BITMAP
88
70
ENDCHAR

STARTCHAR Lslash
ENCODING 163
SWIDTH 611 0
DWIDTH 10 0
BBX 9 12 1 0
BITMAP
F800
2000
2000
2400
2800
3000
6000
A000
2000
2080
2080
FF80
ENDCHAR

STARTCHAR currency
ENCODING 164
SWIDTH 606 0
DWIDTH 10 0
BBX 8 8 1 2
BITMAP
BD
42
81
81
81
81
42
BD
ENDCHAR

STARTCHAR Lcaron
ENCODING 165
SWIDTH 611 0
DWIDTH 10 0
BBX 9 12 1 0
BITMAP
FB00
2300
2200
2400
2000
2000
2000
2000
2000
2080
2080
FF80
ENDCHAR

STARTCHAR Sacute
ENCODING 166
SWIDTH 525 0
DWIDTH 9 0
BBX 7 15 1 0
BITMAP
0C
10
00
3E
42
82
80
80
7C
06
02
02
82
84
F8
ENDCHAR

STARTCHAR section
ENCODING 167
SWIDTH 500 0
DWIDTH 9 0
BBX 6 18 1 -5
BITMAP
3C
44
84
80
80
70
48
84
84
84
84
48
38
04
04
84
88
F0
ENDCHAR

STARTCHAR dieresis
ENCODING 168
SWIDTH 333 0
DWIDTH 6 0
BBX 6 2 0 9
BITMAP
CC
CC
ENDCHAR

STARTCHAR Scaron
ENCODING 169
SWIDTH 525 0
DWIDTH 9 0
BBX 7 15 1 0
BITMAP
24
18
00
3E
42
82
80
80
7C
06
02
02
82
84
F8
ENDCHAR

STARTCHAR Scommaaccent
ENCODING 170
SWIDTH 525 0
DWIDTH 9 0
BBX 7 17 1 -5
BITMAP
3E
42
82
80
80
7C
06
02
02
82
84
F8
00
30
30
20
40
ENDCHAR

STARTCHAR Tcaron
ENCODING 171
SWIDTH 613 0
DWIDTH 10 0
BBX 9 15 1 0
BITMAP
1200
0C00
0000
FF80
8880
8880
0800
0800
0800
0800
0800
0800
0800
0800
3E00
ENDCHAR

STARTCHAR Zacute
ENCODING 172
SWIDTH 667 0
DWIDTH 11 0
BBX 10 15 1 0
BITMAP
0600
0800
0000
FFC0
8080
8100
0200
0200
0400
0800
1000
1000
2040
4040
FFC0
ENDCHAR

STARTCHAR hyphen
ENCODING 173
SWIDTH 333 0
DWIDTH 6 0
BBX 5 1 1 4
BITMAP
F8
ENDCHAR

STARTCHAR Zcaron
ENCODING 174
SWIDTH 667 0
DWIDTH 11 0
BBX 10 15 1 0
BITMAP
1200
0C00
0000
FFC0
8080
8100
0200
0200
0400
0800
1000
1000
2040
4040
FFC0
ENDCHAR

STARTCHAR Zdotaccent
ENCODING 175
SWIDTH 667 0
DWIDTH 11 0
BBX 10 15 1 0
BITMAP
0C00
0C00
0000
FFC0
8080
8100
0200
0200
0400
0800
1000
1000
2040
4040
FFC0
ENDCHAR

STARTCHAR degree
ENCODING 176
SWIDTH 401 0
DWIDTH 7 0
BBX 5 5 1 7
BITMAP
70
88
88
88
70
ENDCHAR

STARTCHAR aogonek
ENCODING 177
SWIDTH 500 0
DWIDTH 9 0
BBX 9 10 1 -2
BITMAP
7800
8400
0C00
7400
8400
8400
8C00
7600
0400
0380
ENDCHAR

STARTCHAR ogonek
ENCODING 178
SWIDTH 313 0
DWIDTH 5 0
BBX 4 2 1 -2
BITMAP
80
70
ENDCHAR

STARTCHAR lslash
ENCODING 179
SWIDTH 291 0
DWIDTH 5 0
BBX 5 13 0 0
BITMAP
20
60
20
20
28
30
20
60
A0
20
20
20
70
ENDCHAR

STARTCHAR acute
ENCODING 180
SWIDTH 333 0
DWIDTH 6 0
BBX 3 2 2 9
BITMAP
60
80
ENDCHAR

STARTCHAR lcaron
ENCODING 181
SWIDTH 415 0
DWIDTH 5 0
BBX 5 13 1 0
BITMAP
58
D8
50
60
40
40
40
40
40
40
40
40
E0
ENDCHAR

STARTCHAR sacute
ENCODING 182
SWIDTH 424 0
DWIDTH 7 0
BBX 6 11 1 0
BITMAP
18
20
00
7C
84
80
60
18
04
84
F8
ENDCHAR

STARTCHAR caron
ENCODING 183
SWIDTH 333 0
DWIDTH 6 0
BBX 4 2 1 9
BITMAP
90
60
ENDCHAR

STARTCHAR commaaccent
ENCODING 184
SWIDTH 333 0
DWIDTH 6 0
BBX 3 4 1 -5
BITMAP
60
60
40
80
ENDCHAR

STARTCHAR scaron
ENCODING 185
SWIDTH 424 0
DWIDTH 7 0
BBX 6 11 1 0
BITMAP
48
30
00
7C
84
80
60
18
04
84
F8
ENDCHAR

STARTCHAR scommaaccent
ENCODING 186
SWIDTH 424 0
DWIDTH 7 0
BBX 6 13 1 -5
BITMAP
7C
84
80
60
18
04
84
F8
00
60
60
40
80
ENDCHAR

STARTCHAR tcaron
ENCODING 187
SWIDTH 438 0
DWIDTH 6 0
BBX 5 12 1 0
BITMAP
18
58
50
60
F0
40
40
40
40
40
48
30
ENDCHAR

STARTCHAR zacute
ENCODING 188
SWIDTH 500 0
DWIDTH 9 0
BBX 7 11 1 0
BITMAP
18
20
00
FE
84
08
10
20
40
82
FE
ENDCHAR

STARTCHAR hungarumlaut
ENCODING 189
SWIDTH 380 0
DWIDTH 6 0
BBX 7 2 0 9
BITMAP
66
88
ENDCHAR

STARTCHAR zcaron
ENCODING 190
SWIDTH 500 0
DWIDTH 9 0
BBX 7 11 1 0
BITMAP
24
18
00
FE
84
08
10
20
40
82
FE
ENDCHAR

STARTCHAR zdotaccent
ENCODING 191
SWIDTH 500 0
DWIDTH 9 0
BBX 7 11 1 0
BITMAP
18
18
00
FE
84
08
10
20
40
82
FE
ENDCHAR

STARTCHAR Racute
ENCODING 192
SWIDTH 668 0
DWIDTH 11 0
BBX 11 15 1 0
BITMAP
0C00
1000
0000
FE00
2100
2080
2080
2100
3E00
2800
2400
2200
2100
2080
F8E0
ENDCHAR

STARTCHAR Aacute
ENCODING 193
SWIDTH 778 0
DWIDTH 12 0
BBX 13 15 0 0
BITMAP
0180
0200
0000
0200
0200
0200
0500
0500
0880
0880
1FC0
1040
2020
2020
F8F8
ENDCHAR

STARTCHAR Acircumflex
ENCODING 194
SWIDTH 778 0
DWIDTH 12 0
BBX 13 15 0 0
BITMAP
0300
0480
0000
0200
0200
0200
0500
0500
0880
0880
1FC0
1040
2020
2020
F8F8
ENDCHAR

STARTCHAR Abreve
ENCODING 195
SWIDTH 778 0
DWIDTH 12 0
BBX 13 15 0 0
BITMAP
0880
0700
0000
0200
0200
0200
0500
0500
0880
0880
1FC0
1040
2020
2020
F8F8
ENDCHAR

STARTCHAR Adieresis
ENCODING 196
SWIDTH 778 0
DWIDTH 12 0
BBX 13 15 0 0
BITMAP
0CC0
0CC0
0000
0200
0200
0200
0500
0500
0880
0880
1FC0
1040
2020
2020
F8F8
ENDCHAR

STARTCHAR Lacute
ENCODING 197
SWIDTH 611 0
DWIDTH 10 0
BBX 9 15 1 0
BITMAP
0C00
1000
0000
F800
2000
2000
2000
2000
2000
2000
2000
2000
2080
2080
FF80
ENDCHAR

STARTCHAR Cacute
ENCODING 198
SWIDTH 709 0
DWIDTH 12 0
BBX 10 15 1 0
BITMAP
0300
0400
0000
0FC0
3040
4040
4000
8000
8000
8000
8000
4000
4000
3040
0F80
ENDCHAR

STARTCHAR Ccedilla
ENCODING 199
SWIDTH 709 0
DWIDTH 12 0
BBX 10 15 1 -3
BITMAP
0FC0
3040
4040
4000
8000
8000
8000
8000
4000
4000
3040
0F80
0400
0200
0C00
ENDCHAR

STARTCHAR Ccaron
ENCODING 200
SWIDTH 709 0
DWIDTH 12 0
BBX 10 15 1 0
BITMAP
0480
0300
0000
0FC0
3040
4040
4000
8000
8000
8000
8000
4000
4000
3040
0F80
ENDCHAR

STARTCHAR Eacute
ENCODING 201
SWIDTH 611 0
DWIDTH 10 0
BBX 9 15 1 0
BITMAP
0600
0800
0000
FF80
2080
2080
2000
2100
3F00
2100
2000
2000
2080
2080
FF80
ENDCHAR

STARTCHAR Eogonek
ENCODING 202
SWIDTH 611 0
DWIDTH 10 0
BBX 9 14 1 -2
BITMAP
FF80
2080
2080
2000
2100
3F00
2100
2000
2000
2080
2080
FF80
0400
0380
ENDCHAR

STARTCHAR Edieresis
ENCODING 203
SWIDTH 611 0
DWIDTH 10 0
BBX 9 15 1 0
BITMAP
3300
3300
0000
FF80
2080
2080
2000
2100
3F00
2100
2000
2000
2080
2080
FF80
ENDCHAR

STARTCHAR Ecaron
ENCODING 204
SWIDTH 611 0
DWIDTH 10 0
BBX 9 15 1 0
BITMAP
1200
0C00
0000
FF80
2080
2080
2000
2100
3F00
2100
2000
2000
2080
2080
FF80
ENDCHAR

STARTCHAR Iacute
ENCODING 205
SWIDTH 337 0
DWIDTH 6 0
BBX 5 15 1 0
BITMAP
18
20
00
F8
20
20
20
20
20
20
20
20
20
20
F8
ENDCHAR

STARTCHAR Icircumflex
ENCODING 206
SWIDTH 337 0
DWIDTH 6 0
BBX 5 15 1 0
BITMAP
30
48
00
F8
20
20
20
20
20
20
20
20
20
20
F8
ENDCHAR

STARTCHAR Dcaron
ENCODING 207
SWIDTH 774 0
DWIDTH 13 0
BBX 12 15 1 0
BITMAP
0900
0600
0000
FF00
20C0
2020
2020
2010
2010
2010
2010
2020
2020
20C0
FF00
ENDCHAR

STARTCHAR Dcroat
ENCODING 208
SWIDTH 774 0
DWIDTH 13 0
BBX 12 12 1 0
BITMAP
FF00
20C0
2020
2020
2010
FC10
2010
2010
2020
2020
20C0
FF00
ENDCHAR

STARTCHAR Nacute
ENCODING 209
SWIDTH 831 0
DWIDTH 14 0
BBX 13 15 1 0
BITMAP
0300
0400
0000
E0F8
3020
2820
2820
2420
2220
2220
2120
20A0
20A0
2060
F820
ENDCHAR

STARTCHAR Ncaron
ENCODING 210
SWIDTH 831 0
DWIDTH 14 0
BBX 13 15 1 0
BITMAP
0480
0300
0000
E0F8
3020
2820
2820
2420
2220
2220
2120
20A0
20A0
2060
F820
ENDCHAR

STARTCHAR Oacute
ENCODING 211
SWIDTH 786 0
DWIDTH 13 0
BBX 12 15 1 0
BITMAP
0300
0400
0000
0F00
30C0
4020
4020
8010
8010
8010
8010
4020
4020
30C0
0F00
ENDCHAR

STARTCHAR Ocircumflex
ENCODING 212
SWIDTH 786 0
DWIDTH 13 0
BBX 12 15 1 0
BITMAP
0600
0900
0000
0F00
30C0
4020
4020
8010
8010
8010
8010
4020
4020
30C0
0F00
ENDCHAR

STARTCHAR Ohungarumlaut
ENCODING 213
SWIDTH 786 0
DWIDTH 13 0
BBX 12 15 1 0
BITMAP
0CC0
1100
0000
0F00
30C0
4020
4020
8010
8010
8010
8010
4020
4020
30C0
0F00
ENDCHAR

STARTCHAR Odieresis
ENCODING 214
SWIDTH 786 0
DWIDTH 13 0
BBX 12 15 1 0
BITMAP
1980
1980
0000
0F00
30C0
4020
4020
8010
8010
8010
8010
4020
4020
30C0
0F00
ENDCHAR

STARTCHAR multiply
ENCODING 215
SWIDTH 606 0
DWIDTH 10 0
BBX 8 7 1 2
BITMAP
81
42
24
18
24
42
81
ENDCHAR

STARTCHAR Rcaron
ENCODING 216
SWIDTH 668 0
DWIDTH 11 0
BBX 11 15 1 0
BITMAP
1200
0C00
0000
FE00
2100
2080
2080
2100
3E00
2800
2400
2200
2100
2080
F8E0
ENDCHAR

STARTCHAR Uring
ENCODING 217
SWIDTH 778 0
DWIDTH 13 0
BBX 13 16 1 0
BITMAP
0300
0480
0300
0000
F8F8
2020
2020
2020
2020
2020
2020
2020
2020
2020
1040
0F80
ENDCHAR

STARTCHAR Uacute
ENCODING 218
SWIDTH 778 0
DWIDTH 13 0
BBX 13 15 1 0
BITMAP
0300
0400
0000
F8F8
2020
2020
2020
2020
2020
2020
2020
2020
2020
1040
0F80
ENDCHAR

STARTCHAR Uhungarumlaut
ENCODING 219
SWIDTH 778 0
DWIDTH 13 0
BBX 13 15 1 0
BITMAP
0CC0
1100
0000
F8F8
2020
2020
2020
2020
2020
2020
2020
2020
2020
1040
0F80
ENDCHAR

STARTCHAR Udieresis
ENCODING 220
SWIDTH 778 0
DWIDTH 13 0
BBX 13 15 1 0
BITMAP
0CC0
0CC0
0000
F8F8
2020
2020
2020
2020
2020
2020
2020
2020
2020
1040
0F80
ENDCHAR

STARTCHAR Yacute
ENCODING 221
SWIDTH 667 0
DWIDTH 11 0
BBX 10 15 1 0
BITMAP
0600
0800
0000
C0C0
2100
1200
1200
1400
0C00
0800
0800
0800
0800
0800
3E00
ENDCHAR

STARTCHAR Tcommaaccent
ENCODING 222
SWIDTH 613 0
DWIDTH 10 0
BBX 9 17 1 -5
BITMAP
FF80
8880
8880
0800
0800
0800
0800
0800
0800
0800
0800
3E00
0000
1800
1800
1000
2000
ENDCHAR

STARTCHAR germandbls
ENCODING 223
SWIDTH 556 0
DWIDTH 9 0
BBX 8 13 1 0
BITMAP
1C
22
41
41
41
C6
58
44
42
41
41
49
E6
ENDCHAR

STARTCHAR racute
ENCODING 224
SWIDTH 395 0
DWIDTH 7 0
BBX 5 11 1 0
BITMAP
18
20
00
58
E8
40
40
40
40
40
E0
ENDCHAR

STARTCHAR aacute
ENCODING 225
SWIDTH 500 0
DWIDTH 9 0
BBX 7 11 1 0
BITMAP
18
20
00
78
84
0C
74
84
84
8C
76
ENDCHAR

STARTCHAR acircumflex
ENCODING 226
SWIDTH 500 0
DWIDTH 9 0
BBX 7 11 1 0
BITMAP
30
48
00
78
84
0C
74
84
84
8C
76
ENDCHAR

STARTCHAR abreve
ENCODING 227
SWIDTH 500 0
DWIDTH 9 0
BBX 7 11 1 0
BITMAP
44
38
00
78
84
0C
74
84
84
8C
76
ENDCHAR

STARTCHAR adieresis
ENCODING 228
SWIDTH 500 0
DWIDTH 9 0
BBX 7 11 1 0
BITMAP
CC
CC
00
78
84
0C
74
84
84
8C
76
ENDCHAR

STARTCHAR lacute
ENCODING 229
SWIDTH 291 0
DWIDTH 5 0
BBX 4 16 1 0
BITMAP
30
40
00
40
C0
40
40
40
40
40
40
40
40
40
40
E0
ENDCHAR

STARTCHAR cacute
ENCODING 230
SWIDTH 444 0
DWIDTH 8 0
BBX 7 11 1 0
BITMAP
0C
10
00
3E
42
82
80
80
80
42
3C
ENDCHAR

STARTCHAR ccedilla
ENCODING 231
SWIDTH 444 0
DWIDTH 8 0
BBX 7 11 1 -3
BITMAP
3E
42
82
80
80
80
42
3C
10
08
30
ENDCHAR

STARTCHAR ccaron
ENCODING 232
SWIDTH 444 0
DWIDTH 8 0
BBX 7 11 1 0
BITMAP
24
18
00
3E
42
82
80
80
80
42
3C
ENDCHAR

STARTCHAR eacute
ENCODING 233
SWIDTH 479 0
DWIDTH 9 0
BBX 7 11 1 0
BITMAP
18
20
00
38
44
82
FE
80
80
42
3C
ENDCHAR

STARTCHAR eogonek
ENCODING 234
SWIDTH 479 0
DWIDTH 9 0
BBX 7 10 1 -2
BITMAP
38
44
82
FE
80
80
42
3C
10
0E
ENDCHAR

STARTCHAR edieresis
ENCODING 235
SWIDTH 479 0
DWIDTH 9 0
BBX 7 11 1 0
BITMAP
66
66
00
38
44
82
FE
80
80
42
3C
ENDCHAR

STARTCHAR ecaron
ENCODING 236
SWIDTH 479 0
DWIDTH 9 0
BBX 7 11 1 0
BITMAP
24
18
00
38
44
82
FE
80
80
42
3C
ENDCHAR

STARTCHAR iacute
ENCODING 237
SWIDTH 287 0
DWIDTH 5 0
BBX 4 11 1 0
BITMAP
30
40
00
40
C0
40
40
40
40
40
E0
ENDCHAR

STARTCHAR icircumflex
ENCODING 238
SWIDTH 287 0
DWIDTH 5 0
BBX 4 11 1 0
BITMAP
60
90
00
40
C0
40
40
40
40
40
E0
ENDCHAR

STARTCHAR dcaron
ENCODING 239
SWIDTH 730 0
DWIDTH 10 0
BBX 10 13 1 0
BITMAP
02C0
06C0
0280
0300
0200
3A00
4600
8200
8200
8200
8200
4600
3B00
ENDCHAR

STARTCHAR dcroat
ENCODING 240
SWIDTH 611 0
DWIDTH 10 0
BBX 8 13 1 0
BITMAP
02
06
02
0F
02
3A
46
82
82
82
82
46
3B
ENDCHAR

STARTCHAR nacute
ENCODING 241
SWIDTH 582 0
DWIDTH 10 0
BBX 8 11 1 0
BITMAP
0C
10
00
5C
E2
42
42
42
42
42
E3
ENDCHAR

STARTCHAR ncaron
ENCODING 242
SWIDTH 582 0
DWIDTH 10 0
BBX 8 11 1 0
BITMAP
24
18
00
5C
E2
42
42
42
42
42
E3
ENDCHAR

STARTCHAR oacute
ENCODING 243
SWIDTH 546 0
DWIDTH 9 0
BBX 7 11 1 0
BITMAP
0C
10
00
38
44
82
82
82
82
44
38
ENDCHAR

STARTCHAR ocircumflex
ENCODING 244
SWIDTH 546 0
DWIDTH 9 0
BBX 7 11 1 0
BITMAP
18
24
00
38
44
82
82
82
82
44
38
ENDCHAR

STARTCHAR ohungarumlaut
ENCODING 245
SWIDTH 546 0
DWIDTH 9 0
BBX 7 11 1 0
BITMAP
66
88
00
38
44
82
82
82
82
44
38
ENDCHAR

STARTCHAR odieresis
ENCODING 246
SWIDTH 546 0
DWIDTH 9 0
BBX 7 11 1 0
BITMAP
66
66
00
38
44
82
82
82
82
44
38
ENDCHAR

STARTCHAR divide
ENCODING 247
SWIDTH 606 0
DWIDTH 10 0
BBX 8 7 1 2
BITMAP
18
18
00
FF
00
18
18
ENDCHAR

STARTCHAR rcaron
ENCODING 248
SWIDTH 395 0
DWIDTH 7 0
BBX 5 11 1 0
BITMAP
48
30
00
58
E8
40
40
40
40
40
E0
ENDCHAR

STARTCHAR uring
ENCODING 249
SWIDTH 603 0
DWIDTH 10 0
BBX 8 12 1 0
BITMAP
18
24
18
00
C6
42
42
42
42
42
46
3B
ENDCHAR

STARTCHAR uacute
ENCODING 250
SWIDTH 603 0
DWIDTH 10 0
BBX 8 11 1 0
BITMAP
0C
10
00
C6
42
42
42
42
42
46
3B
ENDCHAR

STARTCHAR uhungarumlaut
ENCODING 251
SWIDTH 603 0
DWIDTH 10 0
BBX 8 11 1 0
BITMAP
33
44
00
C6
42
42
42
42
42
46
3B
ENDCHAR

STARTCHAR udieresis
ENCODING 252
SWIDTH 603 0
DWIDTH 10 0
BBX 8 11 1 0
BITMAP
66
66
00
C6
42
42
42
42
42
46
3B
ENDCHAR

STARTCHAR yacute
ENCODING 253
SWIDTH 556 0
DWIDTH 9 0
BBX 8 16 1 -5
BITMAP
0C
10
00
E7
42
42
24
24
28
18
10
10
10
20
A0
C0
ENDCHAR

STARTCHAR tcommaaccent
ENCODING 254
SWIDTH 326 0
DWIDTH 6 0
BBX 5 16 1 -5
BITMAP
40
40
40
F0
40
40
40
40
40
48
30
00
60
60
40
80
ENDCHAR

STARTCHAR dotaccent
ENCODING 255
SWIDTH 250 0
DWIDTH 4 0
BBX 2 2 1 9
BITMAP
C0
C0
ENDCHAR
ENDFONT
